<svg xmlns="http://www.w3.org/2000/svg" viewBox="0 0 800 500">
  <defs>
    <linearGradient id="bgGrad5" x1="0%" y1="0%" x2="100%" y2="100%">
      <stop offset="0%" style="stop-color:#f8fafc"/>
      <stop offset="100%" style="stop-color:#e2e8f0"/>
    </linearGradient>
  </defs>
  
  <!-- Background -->
  <rect width="800" height="500" fill="url(#bgGrad5)"/>
  
  <!-- Header -->
  <rect x="0" y="0" width="800" height="60" fill="#0891b2"/>
  <text x="70" y="38" font-family="Arial, sans-serif" font-size="20" font-weight="bold" fill="white">Audit Trail - FDA 21 CFR Part 11 Compliant</text>
  <rect x="32" y="20" width="20" height="20" rx="2" fill="#0e7490"/>
  <path d="M37 25 L47 25 M37 30 L47 30 M37 35 L44 35" stroke="white" stroke-width="2"/>
  
  <!-- Filter Section -->
  <rect x="20" y="80" width="760" height="60" rx="8" fill="white" stroke="#e2e8f0"/>
  <text x="40" y="105" font-family="Arial, sans-serif" font-size="11" fill="#64748b">Start Date</text>
  <rect x="40" y="112" width="140" height="28" rx="4" fill="#f8fafc" stroke="#e2e8f0"/>
  <text x="55" y="130" font-family="Arial, sans-serif" font-size="11" fill="#1e293b">2026-01-01</text>
  
  <text x="200" y="105" font-family="Arial, sans-serif" font-size="11" fill="#64748b">End Date</text>
  <rect x="200" y="112" width="140" height="28" rx="4" fill="#f8fafc" stroke="#e2e8f0"/>
  <text x="215" y="130" font-family="Arial, sans-serif" font-size="11" fill="#1e293b">2026-01-24</text>
  
  <text x="360" y="105" font-family="Arial, sans-serif" font-size="11" fill="#64748b">Entity Type</text>
  <rect x="360" y="112" width="140" height="28" rx="4" fill="#f8fafc" stroke="#e2e8f0"/>
  <text x="375" y="130" font-family="Arial, sans-serif" font-size="11" fill="#94a3b8">All</text>
  
  <rect x="680" y="105" width="80" height="32" rx="4" fill="#0891b2"/>
  <text x="703" y="126" font-family="Arial, sans-serif" font-size="12" fill="white">Search</text>
  
  <!-- Audit Table -->
  <rect x="20" y="160" width="760" height="320" rx="8" fill="white" stroke="#e2e8f0"/>
  
  <!-- Table Header -->
  <rect x="20" y="160" width="760" height="35" rx="8" fill="#f8fafc"/>
  <text x="40" y="182" font-family="Arial, sans-serif" font-size="11" font-weight="bold" fill="#64748b">TIMESTAMP</text>
  <text x="180" y="182" font-family="Arial, sans-serif" font-size="11" font-weight="bold" fill="#64748b">ACTION</text>
  <text x="320" y="182" font-family="Arial, sans-serif" font-size="11" font-weight="bold" fill="#64748b">ENTITY</text>
  <text x="440" y="182" font-family="Arial, sans-serif" font-size="11" font-weight="bold" fill="#64748b">USER</text>
  <text x="580" y="182" font-family="Arial, sans-serif" font-size="11" font-weight="bold" fill="#64748b">DETAILS</text>
  
  <!-- Row 1 -->
  <line x1="20" y1="195" x2="780" y2="195" stroke="#e2e8f0"/>
  <text x="40" y="220" font-family="Arial, sans-serif" font-size="10" fill="#1e293b">Jan 24, 10:45</text>
  <rect x="180" y="207" width="60" height="20" rx="4" fill="transparent" stroke="#e2e8f0"/>
  <text x="192" y="221" font-family="Arial, sans-serif" font-size="10" fill="#64748b">update</text>
  <text x="320" y="220" font-family="Arial, sans-serif" font-size="10" fill="#1e293b">Patient</text>
  <text x="440" y="220" font-family="Arial, sans-serif" font-size="10" fill="#1e293b">dr.smith@hospital.org</text>
  <text x="580" y="220" font-family="Arial, sans-serif" font-size="10" fill="#64748b">Updated status to active</text>
  
  <!-- Row 2 -->
  <line x1="20" y1="235" x2="780" y2="235" stroke="#e2e8f0"/>
  <text x="40" y="260" font-family="Arial, sans-serif" font-size="10" fill="#1e293b">Jan 24, 10:32</text>
  <rect x="180" y="247" width="60" height="20" rx="4" fill="transparent" stroke="#e2e8f0"/>
  <text x="192" y="261" font-family="Arial, sans-serif" font-size="10" fill="#64748b">create</text>
  <text x="320" y="260" font-family="Arial, sans-serif" font-size="10" fill="#1e293b">Match</text>
  <text x="440" y="260" font-family="Arial, sans-serif" font-size="10" fill="#1e293b">coord@hospital.org</text>
  <text x="580" y="260" font-family="Arial, sans-serif" font-size="10" fill="#64748b">New match created</text>
  
  <!-- Row 3 -->
  <line x1="20" y1="275" x2="780" y2="275" stroke="#e2e8f0"/>
  <text x="40" y="300" font-family="Arial, sans-serif" font-size="10" fill="#1e293b">Jan 24, 10:15</text>
  <rect x="180" y="287" width="60" height="20" rx="4" fill="transparent" stroke="#fecaca"/>
  <text x="192" y="301" font-family="Arial, sans-serif" font-size="10" fill="#dc2626">phi_view</text>
  <text x="320" y="300" font-family="Arial, sans-serif" font-size="10" fill="#1e293b">Patient</text>
  <text x="440" y="300" font-family="Arial, sans-serif" font-size="10" fill="#1e293b">nurse@hospital.org</text>
  <text x="580" y="300" font-family="Arial, sans-serif" font-size="10" fill="#64748b">Viewed PHI - Treatment</text>
  
  <!-- Row 4 -->
  <line x1="20" y1="315" x2="780" y2="315" stroke="#e2e8f0"/>
  <text x="40" y="340" font-family="Arial, sans-serif" font-size="10" fill="#1e293b">Jan 24, 09:58</text>
  <rect x="180" y="327" width="60" height="20" rx="4" fill="transparent" stroke="#e2e8f0"/>
  <text x="200" y="341" font-family="Arial, sans-serif" font-size="10" fill="#64748b">login</text>
  <text x="320" y="340" font-family="Arial, sans-serif" font-size="10" fill="#1e293b">User</text>
  <text x="440" y="340" font-family="Arial, sans-serif" font-size="10" fill="#1e293b">admin@hospital.org</text>
  <text x="580" y="340" font-family="Arial, sans-serif" font-size="10" fill="#64748b">User logged in</text>
  
  <!-- Row 5 -->
  <line x1="20" y1="355" x2="780" y2="355" stroke="#e2e8f0"/>
  <text x="40" y="380" font-family="Arial, sans-serif" font-size="10" fill="#1e293b">Jan 24, 09:45</text>
  <rect x="180" y="367" width="60" height="20" rx="4" fill="transparent" stroke="#86efac"/>
  <text x="192" y="381" font-family="Arial, sans-serif" font-size="10" fill="#166534">backup</text>
  <text x="320" y="380" font-family="Arial, sans-serif" font-size="10" fill="#1e293b">System</text>
  <text x="440" y="380" font-family="Arial, sans-serif" font-size="10" fill="#1e293b">system</text>
  <text x="580" y="380" font-family="Arial, sans-serif" font-size="10" fill="#64748b">Auto backup created</text>
  
  <!-- Row 6 -->
  <line x1="20" y1="395" x2="780" y2="395" stroke="#e2e8f0"/>
  <text x="40" y="420" font-family="Arial, sans-serif" font-size="10" fill="#1e293b">Jan 24, 08:30</text>
  <rect x="180" y="407" width="60" height="20" rx="4" fill="transparent" stroke="#e2e8f0"/>
  <text x="192" y="421" font-family="Arial, sans-serif" font-size="10" fill="#64748b">update</text>
  <text x="320" y="420" font-family="Arial, sans-serif" font-size="10" fill="#1e293b">Donor</text>
  <text x="440" y="420" font-family="Arial, sans-serif" font-size="10" fill="#1e293b">coord@hospital.org</text>
  <text x="580" y="420" font-family="Arial, sans-serif" font-size="10" fill="#64748b">Updated organ quality</text>
  
  <!-- Footer -->
  <text x="40" y="460" font-family="Arial, sans-serif" font-size="10" fill="#94a3b8">Showing 6 of 45,892 entries " Audit logs are immutable and tamper-proof</text>
  
  <!-- Pagination -->
  <rect x="680" y="445" width="24" height="24" rx="4" fill="#0891b2"/>
  <text x="688" y="461" font-family="Arial, sans-serif" font-size="11" fill="white">1</text>
  <rect x="710" y="445" width="24" height="24" rx="4" fill="#f8fafc" stroke="#e2e8f0"/>
  <text x="718" y="461" font-family="Arial, sans-serif" font-size="11" fill="#64748b">2</text>
  <rect x="740" y="445" width="24" height="24" rx="4" fill="#f8fafc" stroke="#e2e8f0"/>
  <text x="748" y="461" font-family="Arial, sans-serif" font-size="11" fill="#64748b">3</text>
</svg>
