<svg xmlns="http://www.w3.org/2000/svg" width="800" height="500" viewBox="0 0 800 500">
  <defs>
    <linearGradient id="bg" x1="0%" y1="0%" x2="100%" y2="100%">
      <stop offset="0%" style="stop-color:#f8fafc"/>
      <stop offset="100%" style="stop-color:#e2e8f0"/>
    </linearGradient>
    <linearGradient id="blueGrad" x1="0%" y1="0%" x2="100%" y2="100%">
      <stop offset="0%" style="stop-color:#4FC3F7"/>
      <stop offset="100%" style="stop-color:#0288D1"/>
    </linearGradient>
    <linearGradient id="greenGrad" x1="0%" y1="0%" x2="100%" y2="100%">
      <stop offset="0%" style="stop-color:#AED581"/>
      <stop offset="100%" style="stop-color:#7CB342"/>
    </linearGradient>
  </defs>
  
  <!-- Background -->
  <rect width="800" height="500" fill="url(#bg)"/>
  
  <!-- Header -->
  <rect x="0" y="0" width="800" height="60" fill="#0a0a0a"/>
  
  <!-- Logo - Heart Icon -->
  <g transform="translate(20, 8)">
    <rect width="44" height="44" rx="8" fill="#0a0a0a"/>
    <path d="M22 38 C14 30 8 24 8 18 C8 13 12 9 17 9 C20 9 22 11 22 11" 
          fill="none" stroke="url(#blueGrad)" stroke-width="3" stroke-linecap="round"/>
    <path d="M22 38 C30 30 36 24 36 18 C36 13 32 9 27 9 C24 9 22 11 22 11" 
          fill="none" stroke="url(#greenGrad)" stroke-width="3" stroke-linecap="round"/>
  </g>
  
  <text x="72" y="37" font-family="Arial, sans-serif" font-size="18" font-weight="bold" fill="#4FC3F7">Trans</text>
  <text x="117" y="37" font-family="Arial, sans-serif" font-size="18" font-weight="bold" fill="#AED581">Track</text>
  
  <!-- Nav items -->
  <text x="200" y="37" font-family="Arial, sans-serif" font-size="13" fill="#94a3b8">Dashboard</text>
  <text x="300" y="37" font-family="Arial, sans-serif" font-size="13" fill="#94a3b8">Patients</text>
  <text x="380" y="37" font-family="Arial, sans-serif" font-size="13" fill="#94a3b8">Donor Matching</text>
  <text x="510" y="37" font-family="Arial, sans-serif" font-size="13" fill="#94a3b8">Reports</text>
  
  <!-- Title -->
  <text x="40" y="110" font-family="Arial, sans-serif" font-size="24" font-weight="bold" fill="#0f172a">Waitlist Dashboard</text>
  <text x="40" y="135" font-family="Arial, sans-serif" font-size="14" fill="#64748b">Real-time transplant prioritization</text>
  
  <!-- Stats Cards -->
  <rect x="40" y="160" width="170" height="90" rx="8" fill="#ffffff" stroke="#e2e8f0"/>
  <text x="60" y="190" font-family="Arial, sans-serif" font-size="12" fill="#64748b">Total Patients</text>
  <text x="60" y="225" font-family="Arial, sans-serif" font-size="28" font-weight="bold" fill="#0f172a">156</text>
  
  <rect x="230" y="160" width="170" height="90" rx="8" fill="#ecfdf5" stroke="#a7f3d0"/>
  <text x="250" y="190" font-family="Arial, sans-serif" font-size="12" fill="#047857">Active on List</text>
  <text x="250" y="225" font-family="Arial, sans-serif" font-size="28" font-weight="bold" fill="#065f46">124</text>
  
  <rect x="420" y="160" width="170" height="90" rx="8" fill="#fef2f2" stroke="#fecaca"/>
  <text x="440" y="190" font-family="Arial, sans-serif" font-size="12" fill="#dc2626">Critical Priority</text>
  <text x="440" y="225" font-family="Arial, sans-serif" font-size="28" font-weight="bold" fill="#991b1b">18</text>
  
  <rect x="610" y="160" width="150" height="90" rx="8" fill="#eff6ff" stroke="#bfdbfe"/>
  <text x="630" y="190" font-family="Arial, sans-serif" font-size="12" fill="#2563eb">Transplanted</text>
  <text x="630" y="225" font-family="Arial, sans-serif" font-size="28" font-weight="bold" fill="#1e40af">32</text>
  
  <!-- Patient Cards -->
  <rect x="40" y="280" width="230" height="180" rx="8" fill="#ffffff" stroke="#e2e8f0"/>
  <rect x="50" y="295" width="40" height="40" rx="20" fill="#0288D1"/>
  <text x="100" y="315" font-family="Arial, sans-serif" font-size="14" font-weight="bold" fill="#0f172a">John Smith</text>
  <text x="100" y="332" font-family="Arial, sans-serif" font-size="12" fill="#64748b">PT-2024-001</text>
  <rect x="50" y="350" width="50" height="22" rx="4" fill="#fef2f2"/>
  <text x="58" y="365" font-family="Arial, sans-serif" font-size="11" fill="#dc2626">Critical</text>
  <rect x="110" y="350" width="35" height="22" rx="4" fill="#dbeafe"/>
  <text x="118" y="365" font-family="Arial, sans-serif" font-size="11" fill="#2563eb">O+</text>
  <text x="50" y="400" font-family="Arial, sans-serif" font-size="12" fill="#64748b">Kidney</text>
  <text x="50" y="420" font-family="Arial, sans-serif" font-size="12" fill="#64748b">Priority: </text>
  <text x="100" y="420" font-family="Arial, sans-serif" font-size="14" font-weight="bold" fill="#dc2626">94</text>
  
  <rect x="285" y="280" width="230" height="180" rx="8" fill="#ffffff" stroke="#e2e8f0"/>
  <rect x="295" y="295" width="40" height="40" rx="20" fill="#0288D1"/>
  <text x="345" y="315" font-family="Arial, sans-serif" font-size="14" font-weight="bold" fill="#0f172a">Sarah Johnson</text>
  <text x="345" y="332" font-family="Arial, sans-serif" font-size="12" fill="#64748b">PT-2024-002</text>
  <rect x="295" y="350" width="40" height="22" rx="4" fill="#fef3c7"/>
  <text x="303" y="365" font-family="Arial, sans-serif" font-size="11" fill="#d97706">High</text>
  <rect x="345" y="350" width="35" height="22" rx="4" fill="#dbeafe"/>
  <text x="353" y="365" font-family="Arial, sans-serif" font-size="11" fill="#2563eb">A-</text>
  <text x="295" y="400" font-family="Arial, sans-serif" font-size="12" fill="#64748b">Liver</text>
  <text x="295" y="420" font-family="Arial, sans-serif" font-size="12" fill="#64748b">Priority: </text>
  <text x="345" y="420" font-family="Arial, sans-serif" font-size="14" font-weight="bold" fill="#f59e0b">78</text>
  
  <rect x="530" y="280" width="230" height="180" rx="8" fill="#ffffff" stroke="#e2e8f0"/>
  <rect x="540" y="295" width="40" height="40" rx="20" fill="#7CB342"/>
  <text x="590" y="315" font-family="Arial, sans-serif" font-size="14" font-weight="bold" fill="#0f172a">Michael Brown</text>
  <text x="590" y="332" font-family="Arial, sans-serif" font-size="12" fill="#64748b">PT-2024-003</text>
  <rect x="540" y="350" width="55" height="22" rx="4" fill="#dcfce7"/>
  <text x="548" y="365" font-family="Arial, sans-serif" font-size="11" fill="#16a34a">Medium</text>
  <rect x="605" y="350" width="35" height="22" rx="4" fill="#dbeafe"/>
  <text x="610" y="365" font-family="Arial, sans-serif" font-size="11" fill="#2563eb">B+</text>
  <text x="540" y="400" font-family="Arial, sans-serif" font-size="12" fill="#64748b">Heart</text>
  <text x="540" y="420" font-family="Arial, sans-serif" font-size="12" fill="#64748b">Priority: </text>
  <text x="590" y="420" font-family="Arial, sans-serif" font-size="14" font-weight="bold" fill="#16a34a">52</text>
  
  <!-- Compliance badges -->
  <rect x="40" y="475" width="50" height="18" rx="3" fill="#ffffff" stroke="#e2e8f0"/>
  <text x="50" y="487" font-family="Arial, sans-serif" font-size="10" fill="#64748b">HIPAA</text>
  <rect x="100" y="475" width="100" height="18" rx="3" fill="#ffffff" stroke="#e2e8f0"/>
  <text x="110" y="487" font-family="Arial, sans-serif" font-size="10" fill="#64748b">FDA 21 CFR 11</text>
  <rect x="210" y="475" width="45" height="18" rx="3" fill="#ffffff" stroke="#e2e8f0"/>
  <text x="220" y="487" font-family="Arial, sans-serif" font-size="10" fill="#64748b">AATB</text>
</svg>
