<svg xmlns="http://www.w3.org/2000/svg" width="250" height="150" viewBox="0 0 250 150">
  <defs>
    <linearGradient id="bg" x1="0%" y1="0%" x2="100%" y2="100%">
      <stop offset="0%" style="stop-color:#f8fafc"/>
      <stop offset="100%" style="stop-color:#e2e8f0"/>
    </linearGradient>
    <linearGradient id="blueGrad" x1="0%" y1="0%" x2="100%" y2="100%">
      <stop offset="0%" style="stop-color:#4FC3F7"/>
      <stop offset="100%" style="stop-color:#0288D1"/>
    </linearGradient>
    <linearGradient id="greenGrad" x1="0%" y1="0%" x2="100%" y2="100%">
      <stop offset="0%" style="stop-color:#AED581"/>
      <stop offset="100%" style="stop-color:#7CB342"/>
    </linearGradient>
  </defs>
  <rect width="250" height="150" fill="url(#bg)" rx="8"/>
  <rect x="0" y="0" width="250" height="20" fill="#0a0a0a" rx="8 8 0 0"/>
  
  <!-- Mini Logo -->
  <g transform="translate(5, 3)">
    <path d="M7 12 C4 9 2 7 2 5 C2 3 4 2 5.5 2 C6.5 2 7 3 7 3" 
          fill="none" stroke="url(#blueGrad)" stroke-width="1.5" stroke-linecap="round"/>
    <path d="M7 12 C10 9 12 7 12 5 C12 3 10 2 8.5 2 C7.5 2 7 3 7 3" 
          fill="none" stroke="url(#greenGrad)" stroke-width="1.5" stroke-linecap="round"/>
  </g>
  
  <!-- Donor card -->
  <rect x="10" y="30" width="100" height="50" rx="4" fill="#ecfdf5" stroke="#a7f3d0"/>
  <circle cx="30" cy="55" r="12" fill="#0288D1"/>
  <text x="50" y="50" font-family="Arial" font-size="8" fill="#0f172a">Donor D-001</text>
  <text x="50" y="62" font-family="Arial" font-size="7" fill="#64748b">Kidney · O+</text>
  
  <!-- Arrow -->
  <path d="M115 55 L135 55 M130 50 L135 55 L130 60" stroke="#0288D1" stroke-width="2" fill="none"/>
  
  <!-- Match results -->
  <rect x="140" y="25" width="100" height="30" rx="3" fill="#ffffff" stroke="#7CB342"/>
  <text x="150" y="38" font-family="Arial" font-size="7" fill="#0f172a">John Smith</text>
  <text x="150" y="48" font-family="Arial" font-size="6" fill="#7CB342">95% Match</text>
  
  <rect x="140" y="60" width="100" height="30" rx="3" fill="#ffffff" stroke="#f59e0b"/>
  <text x="150" y="73" font-family="Arial" font-size="7" fill="#0f172a">Sarah Johnson</text>
  <text x="150" y="83" font-family="Arial" font-size="6" fill="#f59e0b">82% Match</text>
  
  <rect x="140" y="95" width="100" height="30" rx="3" fill="#ffffff" stroke="#64748b"/>
  <text x="150" y="108" font-family="Arial" font-size="7" fill="#0f172a">Mike Brown</text>
  <text x="150" y="118" font-family="Arial" font-size="6" fill="#64748b">71% Match</text>
  
  <text x="125" y="145" font-family="Arial" font-size="8" fill="#64748b" text-anchor="middle">Donor Matching</text>
</svg>
