<svg xmlns="http://www.w3.org/2000/svg" width="250" height="150" viewBox="0 0 250 150">
  <defs>
    <linearGradient id="bg" x1="0%" y1="0%" x2="100%" y2="100%">
      <stop offset="0%" style="stop-color:#f8fafc"/>
      <stop offset="100%" style="stop-color:#e2e8f0"/>
    </linearGradient>
  </defs>
  <rect width="250" height="150" fill="url(#bg)" rx="8"/>
  <rect x="0" y="0" width="250" height="20" fill="#ffffff"/>
  <rect x="8" y="5" width="10" height="10" rx="2" fill="#0891b2"/>
  
  <!-- Donor card -->
  <rect x="10" y="30" width="100" height="50" rx="4" fill="#ecfdf5" stroke="#a7f3d0"/>
  <circle cx="30" cy="55" r="12" fill="#0891b2"/>
  <text x="50" y="50" font-family="Arial" font-size="8" fill="#0f172a">Donor D-001</text>
  <text x="50" y="62" font-family="Arial" font-size="7" fill="#64748b">Kidney " O+</text>
  
  <!-- Arrow -->
  <path d="M115 55 L135 55 M130 50 L135 55 L130 60" stroke="#0891b2" stroke-width="2" fill="none"/>
  
  <!-- Match results -->
  <rect x="140" y="25" width="100" height="30" rx="3" fill="#ffffff" stroke="#16a34a"/>
  <text x="150" y="38" font-family="Arial" font-size="7" fill="#0f172a">John Smith</text>
  <text x="150" y="48" font-family="Arial" font-size="6" fill="#16a34a">95% Match</text>
  
  <rect x="140" y="60" width="100" height="30" rx="3" fill="#ffffff" stroke="#f59e0b"/>
  <text x="150" y="73" font-family="Arial" font-size="7" fill="#0f172a">Sarah Johnson</text>
  <text x="150" y="83" font-family="Arial" font-size="6" fill="#f59e0b">82% Match</text>
  
  <rect x="140" y="95" width="100" height="30" rx="3" fill="#ffffff" stroke="#64748b"/>
  <text x="150" y="108" font-family="Arial" font-size="7" fill="#0f172a">Mike Brown</text>
  <text x="150" y="118" font-family="Arial" font-size="6" fill="#64748b">71% Match</text>
  
  <text x="125" y="145" font-family="Arial" font-size="8" fill="#64748b" text-anchor="middle">Donor Matching</text>
</svg>
