<svg xmlns="http://www.w3.org/2000/svg" width="250" height="150" viewBox="0 0 250 150">
  <defs>
    <linearGradient id="bg" x1="0%" y1="0%" x2="100%" y2="100%">
      <stop offset="0%" style="stop-color:#f8fafc"/>
      <stop offset="100%" style="stop-color:#e2e8f0"/>
    </linearGradient>
  </defs>
  <rect width="250" height="150" fill="url(#bg)" rx="8"/>
  <rect x="0" y="0" width="250" height="20" fill="#ffffff"/>
  <rect x="8" y="5" width="10" height="10" rx="2" fill="#0891b2"/>
  
  <!-- Patient header -->
  <circle cx="35" cy="45" r="15" fill="#0891b2"/>
  <text x="60" y="42" font-family="Arial" font-size="10" font-weight="bold" fill="#0f172a">John Smith</text>
  <text x="60" y="54" font-family="Arial" font-size="8" fill="#64748b">PT-2024-001</text>
  
  <!-- Priority score -->
  <rect x="180" y="30" width="60" height="35" rx="4" fill="#fef2f2" stroke="#fecaca"/>
  <text x="210" y="45" font-family="Arial" font-size="8" fill="#dc2626" text-anchor="middle">Priority</text>
  <text x="210" y="58" font-family="Arial" font-size="14" font-weight="bold" fill="#991b1b" text-anchor="middle">94</text>
  
  <!-- Details -->
  <rect x="10" y="70" width="230" height="70" rx="4" fill="#ffffff" stroke="#e2e8f0"/>
  <text x="20" y="88" font-family="Arial" font-size="8" fill="#64748b">Blood Type:</text>
  <text x="80" y="88" font-family="Arial" font-size="8" fill="#0f172a">O+</text>
  <text x="130" y="88" font-family="Arial" font-size="8" fill="#64748b">Organ:</text>
  <text x="165" y="88" font-family="Arial" font-size="8" fill="#0f172a">Kidney</text>
  <text x="20" y="105" font-family="Arial" font-size="8" fill="#64748b">Status:</text>
  <text x="55" y="105" font-family="Arial" font-size="8" fill="#16a34a">Active</text>
  <text x="130" y="105" font-family="Arial" font-size="8" fill="#64748b">Days:</text>
  <text x="160" y="105" font-family="Arial" font-size="8" fill="#0f172a">245</text>
  <text x="20" y="122" font-family="Arial" font-size="8" fill="#64748b">Urgency:</text>
  <text x="65" y="122" font-family="Arial" font-size="8" fill="#dc2626">Critical</text>
  <text x="130" y="122" font-family="Arial" font-size="8" fill="#64748b">HLA:</text>
  <text x="155" y="122" font-family="Arial" font-size="8" fill="#0f172a">A2, B7, DR4</text>
  
  <text x="125" y="145" font-family="Arial" font-size="8" fill="#64748b" text-anchor="middle">Patient Details</text>
</svg>
