<svg xmlns="http://www.w3.org/2000/svg" viewBox="0 0 800 500">
  <defs>
    <linearGradient id="bgGrad6" x1="0%" y1="0%" x2="100%" y2="100%">
      <stop offset="0%" style="stop-color:#f8fafc"/>
      <stop offset="100%" style="stop-color:#e2e8f0"/>
    </linearGradient>
    <linearGradient id="blueGrad" x1="0%" y1="0%" x2="100%" y2="100%">
      <stop offset="0%" style="stop-color:#4FC3F7"/>
      <stop offset="100%" style="stop-color:#0288D1"/>
    </linearGradient>
    <linearGradient id="greenGrad" x1="0%" y1="0%" x2="100%" y2="100%">
      <stop offset="0%" style="stop-color:#AED581"/>
      <stop offset="100%" style="stop-color:#7CB342"/>
    </linearGradient>
  </defs>
  
  <!-- Background -->
  <rect width="800" height="500" fill="url(#bgGrad6)"/>
  
  <!-- Header -->
  <rect x="0" y="0" width="800" height="60" fill="#0a0a0a"/>
  
  <!-- Logo - Heart Icon -->
  <g transform="translate(20, 8)">
    <path d="M22 38 C14 30 8 24 8 18 C8 13 12 9 17 9 C20 9 22 11 22 11" 
          fill="none" stroke="url(#blueGrad)" stroke-width="3" stroke-linecap="round"/>
    <path d="M22 38 C30 30 36 24 36 18 C36 13 32 9 27 9 C24 9 22 11 22 11" 
          fill="none" stroke="url(#greenGrad)" stroke-width="3" stroke-linecap="round"/>
  </g>
  
  <text x="70" y="32" font-family="Arial, sans-serif" font-size="16" font-weight="bold" fill="#4FC3F7">Trans</text>
  <text x="115" y="32" font-family="Arial, sans-serif" font-size="16" font-weight="bold" fill="#AED581">Track</text>
  <text x="170" y="32" font-family="Arial, sans-serif" font-size="18" fill="#ffffff"> - Patient Waitlist Management</text>
  
  <!-- Search and Filter Bar -->
  <rect x="20" y="80" width="760" height="50" rx="8" fill="white" stroke="#e2e8f0"/>
  <rect x="35" y="93" width="300" height="28" rx="4" fill="#f8fafc" stroke="#e2e8f0"/>
  <text x="50" y="112" font-family="Arial, sans-serif" font-size="11" fill="#94a3b8">Search patients...</text>
  
  <rect x="350" y="93" width="100" height="28" rx="4" fill="#f8fafc" stroke="#e2e8f0"/>
  <text x="365" y="112" font-family="Arial, sans-serif" font-size="11" fill="#64748b">All Status</text>
  
  <rect x="460" y="93" width="100" height="28" rx="4" fill="#f8fafc" stroke="#e2e8f0"/>
  <text x="475" y="112" font-family="Arial, sans-serif" font-size="11" fill="#64748b">All Organs</text>
  
  <rect x="660" y="93" width="100" height="28" rx="4" fill="#0288D1"/>
  <text x="680" y="112" font-family="Arial, sans-serif" font-size="12" fill="white">+ Add Patient</text>
  
  <!-- Stats Row -->
  <rect x="20" y="145" width="180" height="50" rx="6" fill="white" stroke="#e2e8f0"/>
  <text x="35" y="168" font-family="Arial, sans-serif" font-size="10" fill="#64748b">Total Patients</text>
  <text x="35" y="185" font-family="Arial, sans-serif" font-size="18" font-weight="bold" fill="#1e293b">1,247</text>
  
  <rect x="210" y="145" width="180" height="50" rx="6" fill="#dcfce7" stroke="#86efac"/>
  <text x="225" y="168" font-family="Arial, sans-serif" font-size="10" fill="#166534">Active</text>
  <text x="225" y="185" font-family="Arial, sans-serif" font-size="18" font-weight="bold" fill="#166534">892</text>
  
  <rect x="400" y="145" width="180" height="50" rx="6" fill="#fef3c7" stroke="#fcd34d"/>
  <text x="415" y="168" font-family="Arial, sans-serif" font-size="10" fill="#b45309">Pending</text>
  <text x="415" y="185" font-family="Arial, sans-serif" font-size="18" font-weight="bold" fill="#b45309">156</text>
  
  <rect x="590" y="145" width="190" height="50" rx="6" fill="#dbeafe" stroke="#93c5fd"/>
  <text x="605" y="168" font-family="Arial, sans-serif" font-size="10" fill="#1d4ed8">Transplanted</text>
  <text x="605" y="185" font-family="Arial, sans-serif" font-size="18" font-weight="bold" fill="#1d4ed8">199</text>
  
  <!-- Patient Table -->
  <rect x="20" y="210" width="760" height="270" rx="8" fill="white" stroke="#e2e8f0"/>
  
  <!-- Table Header -->
  <rect x="20" y="210" width="760" height="35" rx="8" fill="#f8fafc"/>
  <text x="40" y="232" font-family="Arial, sans-serif" font-size="11" font-weight="bold" fill="#64748b">PATIENT</text>
  <text x="200" y="232" font-family="Arial, sans-serif" font-size="11" font-weight="bold" fill="#64748b">MRN</text>
  <text x="310" y="232" font-family="Arial, sans-serif" font-size="11" font-weight="bold" fill="#64748b">ORGAN</text>
  <text x="410" y="232" font-family="Arial, sans-serif" font-size="11" font-weight="bold" fill="#64748b">BLOOD</text>
  <text x="480" y="232" font-family="Arial, sans-serif" font-size="11" font-weight="bold" fill="#64748b">STATUS</text>
  <text x="570" y="232" font-family="Arial, sans-serif" font-size="11" font-weight="bold" fill="#64748b">WAIT TIME</text>
  <text x="670" y="232" font-family="Arial, sans-serif" font-size="11" font-weight="bold" fill="#64748b">PRIORITY</text>
  
  <!-- Patient Row 1 -->
  <line x1="20" y1="245" x2="780" y2="245" stroke="#e2e8f0"/>
  <circle cx="55" cy="270" r="15" fill="#e0e7ff"/>
  <text x="50" y="275" font-family="Arial, sans-serif" font-size="11" fill="#4f46e5">JD</text>
  <text x="80" y="268" font-family="Arial, sans-serif" font-size="12" font-weight="bold" fill="#1e293b">John Davis</text>
  <text x="80" y="283" font-family="Arial, sans-serif" font-size="10" fill="#64748b">Age: 54</text>
  <text x="200" y="275" font-family="Arial, sans-serif" font-size="11" fill="#1e293b">PT-2024-0142</text>
  <text x="310" y="275" font-family="Arial, sans-serif" font-size="11" fill="#1e293b">Kidney</text>
  <rect x="410" y="262" width="35" height="22" rx="4" fill="#fef2f2"/>
  <text x="418" y="278" font-family="Arial, sans-serif" font-size="11" font-weight="bold" fill="#dc2626">O+</text>
  <rect x="480" y="262" width="55" height="22" rx="11" fill="#dcfce7"/>
  <text x="492" y="278" font-family="Arial, sans-serif" font-size="10" fill="#166534">Active</text>
  <text x="570" y="275" font-family="Arial, sans-serif" font-size="11" fill="#1e293b">847 days</text>
  <rect x="670" y="260" width="70" height="26" rx="4" fill="#dc2626"/>
  <text x="685" y="278" font-family="Arial, sans-serif" font-size="11" font-weight="bold" fill="white">Critical</text>
  
  <!-- Patient Row 2 -->
  <line x1="20" y1="295" x2="780" y2="295" stroke="#e2e8f0"/>
  <circle cx="55" cy="320" r="15" fill="#fce7f3"/>
  <text x="48" y="325" font-family="Arial, sans-serif" font-size="11" fill="#db2777">MG</text>
  <text x="80" y="318" font-family="Arial, sans-serif" font-size="12" font-weight="bold" fill="#1e293b">Maria Garcia</text>
  <text x="80" y="333" font-family="Arial, sans-serif" font-size="10" fill="#64748b">Age: 42</text>
  <text x="200" y="325" font-family="Arial, sans-serif" font-size="11" fill="#1e293b">PT-2024-0089</text>
  <text x="310" y="325" font-family="Arial, sans-serif" font-size="11" fill="#1e293b">Liver</text>
  <rect x="410" y="312" width="35" height="22" rx="4" fill="#dbeafe"/>
  <text x="418" y="328" font-family="Arial, sans-serif" font-size="11" font-weight="bold" fill="#1d4ed8">A+</text>
  <rect x="480" y="312" width="55" height="22" rx="11" fill="#dcfce7"/>
  <text x="492" y="328" font-family="Arial, sans-serif" font-size="10" fill="#166534">Active</text>
  <text x="570" y="325" font-family="Arial, sans-serif" font-size="11" fill="#1e293b">612 days</text>
  <rect x="670" y="310" width="70" height="26" rx="4" fill="#f97316"/>
  <text x="692" y="328" font-family="Arial, sans-serif" font-size="11" font-weight="bold" fill="white">High</text>
  
  <!-- Patient Row 3 -->
  <line x1="20" y1="345" x2="780" y2="345" stroke="#e2e8f0"/>
  <circle cx="55" cy="370" r="15" fill="#d1fae5"/>
  <text x="48" y="375" font-family="Arial, sans-serif" font-size="11" fill="#059669">RJ</text>
  <text x="80" y="368" font-family="Arial, sans-serif" font-size="12" font-weight="bold" fill="#1e293b">Robert Johnson</text>
  <text x="80" y="383" font-family="Arial, sans-serif" font-size="10" fill="#64748b">Age: 61</text>
  <text x="200" y="375" font-family="Arial, sans-serif" font-size="11" fill="#1e293b">PT-2024-0201</text>
  <text x="310" y="375" font-family="Arial, sans-serif" font-size="11" fill="#1e293b">Heart</text>
  <rect x="410" y="362" width="35" height="22" rx="4" fill="#dcfce7"/>
  <text x="418" y="378" font-family="Arial, sans-serif" font-size="11" font-weight="bold" fill="#166534">B-</text>
  <rect x="480" y="362" width="55" height="22" rx="11" fill="#fef3c7"/>
  <text x="490" y="378" font-family="Arial, sans-serif" font-size="10" fill="#b45309">Pending</text>
  <text x="570" y="375" font-family="Arial, sans-serif" font-size="11" fill="#1e293b">423 days</text>
  <rect x="670" y="360" width="70" height="26" rx="4" fill="#0288D1"/>
  <text x="685" y="378" font-family="Arial, sans-serif" font-size="11" font-weight="bold" fill="white">Medium</text>
  
  <!-- Patient Row 4 -->
  <line x1="20" y1="395" x2="780" y2="395" stroke="#e2e8f0"/>
  <circle cx="55" cy="420" r="15" fill="#fef3c7"/>
  <text x="48" y="425" font-family="Arial, sans-serif" font-size="11" fill="#b45309">SW</text>
  <text x="80" y="418" font-family="Arial, sans-serif" font-size="12" font-weight="bold" fill="#1e293b">Sarah Williams</text>
  <text x="80" y="433" font-family="Arial, sans-serif" font-size="10" fill="#64748b">Age: 38</text>
  <text x="200" y="425" font-family="Arial, sans-serif" font-size="11" fill="#1e293b">PT-2024-0042</text>
  <text x="310" y="425" font-family="Arial, sans-serif" font-size="11" fill="#1e293b">Kidney</text>
  <rect x="410" y="412" width="35" height="22" rx="4" fill="#fef2f2"/>
  <text x="418" y="428" font-family="Arial, sans-serif" font-size="11" font-weight="bold" fill="#dc2626">O+</text>
  <rect x="480" y="412" width="55" height="22" rx="11" fill="#dcfce7"/>
  <text x="492" y="428" font-family="Arial, sans-serif" font-size="10" fill="#166534">Active</text>
  <text x="570" y="425" font-family="Arial, sans-serif" font-size="11" fill="#1e293b">289 days</text>
  <rect x="670" y="410" width="70" height="26" rx="4" fill="#64748b"/>
  <text x="695" y="428" font-family="Arial, sans-serif" font-size="11" font-weight="bold" fill="white">Low</text>
  
  <!-- Footer -->
  <text x="40" y="465" font-family="Arial, sans-serif" font-size="10" fill="#94a3b8">Showing 4 of 1,247 patients · Page 1 of 312</text>
</svg>
