<svg xmlns="http://www.w3.org/2000/svg" viewBox="0 0 800 500">
  <defs>
    <linearGradient id="bgGrad" x1="0%" y1="0%" x2="100%" y2="100%">
      <stop offset="0%" style="stop-color:#f8fafc"/>
      <stop offset="100%" style="stop-color:#e2e8f0"/>
    </linearGradient>
  </defs>
  
  <!-- Background -->
  <rect width="800" height="500" fill="url(#bgGrad)"/>
  
  <!-- Header -->
  <rect x="0" y="0" width="800" height="60" fill="#0891b2"/>
  <text x="70" y="38" font-family="Arial, sans-serif" font-size="20" font-weight="bold" fill="white">Operational Risk Intelligence</text>
  <circle cx="40" cy="30" r="15" fill="#0e7490"/>
  <path d="M35 30 L40 25 L45 30 L40 35 Z" fill="white"/>
  
  <!-- Risk Metric Cards -->
  <rect x="20" y="80" width="180" height="100" rx="8" fill="#fef2f2" stroke="#fecaca"/>
  <text x="35" y="110" font-family="Arial, sans-serif" font-size="12" fill="#b91c1c">Evaluations Expiring</text>
  <text x="35" y="150" font-family="Arial, sans-serif" font-size="36" font-weight="bold" fill="#7f1d1d">12</text>
  <text x="35" y="170" font-family="Arial, sans-serif" font-size="10" fill="#dc2626">Within 30 days</text>
  
  <rect x="215" y="80" width="180" height="100" rx="8" fill="#fff7ed" stroke="#fed7aa"/>
  <text x="230" y="110" font-family="Arial, sans-serif" font-size="12" fill="#c2410c">Stale Documentation</text>
  <text x="230" y="150" font-family="Arial, sans-serif" font-size="36" font-weight="bold" fill="#7c2d12">8</text>
  <text x="230" y="170" font-family="Arial, sans-serif" font-size="10" fill="#ea580c">No updates 60+ days</text>
  
  <rect x="410" y="80" width="180" height="100" rx="8" fill="#fefce8" stroke="#fef08a"/>
  <text x="425" y="110" font-family="Arial, sans-serif" font-size="12" fill="#a16207">Incomplete Records</text>
  <text x="425" y="150" font-family="Arial, sans-serif" font-size="36" font-weight="bold" fill="#713f12">5</text>
  <text x="425" y="170" font-family="Arial, sans-serif" font-size="10" fill="#ca8a04">Missing critical data</text>
  
  <rect x="605" y="80" width="180" height="100" rx="8" fill="#ecfeff" stroke="#a5f3fc"/>
  <text x="620" y="110" font-family="Arial, sans-serif" font-size="12" fill="#0e7490">At-Risk Patients</text>
  <text x="620" y="150" font-family="Arial, sans-serif" font-size="36" font-weight="bold" fill="#164e63">25</text>
  <text x="700" y="150" font-family="Arial, sans-serif" font-size="16" fill="#0891b2">(18%)</text>
  <text x="620" y="170" font-family="Arial, sans-serif" font-size="10" fill="#06b6d4">Of 142 active</text>
  
  <!-- Tab Navigation -->
  <rect x="20" y="200" width="120" height="35" rx="4" fill="#0891b2"/>
  <text x="42" y="222" font-family="Arial, sans-serif" font-size="12" fill="white">At-Risk Patients</text>
  <rect x="145" y="200" width="120" height="35" rx="4" fill="#f1f5f9"/>
  <text x="155" y="222" font-family="Arial, sans-serif" font-size="12" fill="#64748b">Segment Analysis</text>
  <rect x="270" y="200" width="100" height="35" rx="4" fill="#f1f5f9"/>
  <text x="285" y="222" font-family="Arial, sans-serif" font-size="12" fill="#64748b">Action Items</text>
  
  <!-- Patient Risk List -->
  <rect x="20" y="250" width="760" height="60" rx="6" fill="white" stroke="#e2e8f0"/>
  <text x="40" y="280" font-family="Arial, sans-serif" font-size="14" font-weight="bold" fill="#1e293b">John Smith</text>
  <text x="40" y="298" font-family="Arial, sans-serif" font-size="11" fill="#64748b">MRN: PT-2024-0142</text>
  <rect x="580" y="268" width="80" height="24" rx="4" fill="#fef2f2" stroke="#fecaca"/>
  <text x="596" y="285" font-family="Arial, sans-serif" font-size="11" fill="#b91c1c">3 risks</text>
  <rect x="670" y="268" width="90" height="24" rx="4" fill="#fff7ed" stroke="#fed7aa"/>
  <text x="678" y="285" font-family="Arial, sans-serif" font-size="10" fill="#c2410c">Eval expiring</text>
  
  <rect x="20" y="320" width="760" height="60" rx="6" fill="white" stroke="#e2e8f0"/>
  <text x="40" y="350" font-family="Arial, sans-serif" font-size="14" font-weight="bold" fill="#1e293b">Maria Garcia</text>
  <text x="40" y="368" font-family="Arial, sans-serif" font-size="11" fill="#64748b">MRN: PT-2024-0089</text>
  <rect x="580" y="338" width="80" height="24" rx="4" fill="#fff7ed" stroke="#fed7aa"/>
  <text x="596" y="355" font-family="Arial, sans-serif" font-size="11" fill="#c2410c">2 risks</text>
  <rect x="670" y="338" width="90" height="24" rx="4" fill="#fefce8" stroke="#fef08a"/>
  <text x="680" y="355" font-family="Arial, sans-serif" font-size="10" fill="#a16207">Stale docs</text>
  
  <rect x="20" y="390" width="760" height="60" rx="6" fill="white" stroke="#e2e8f0"/>
  <text x="40" y="420" font-family="Arial, sans-serif" font-size="14" font-weight="bold" fill="#1e293b">Robert Johnson</text>
  <text x="40" y="438" font-family="Arial, sans-serif" font-size="11" fill="#64748b">MRN: PT-2024-0201</text>
  <rect x="580" y="408" width="80" height="24" rx="4" fill="#fff7ed" stroke="#fed7aa"/>
  <text x="596" y="425" font-family="Arial, sans-serif" font-size="11" fill="#c2410c">2 risks</text>
  <rect x="670" y="408" width="100" height="24" rx="4" fill="#fef2f2" stroke="#fecaca"/>
  <text x="676" y="425" font-family="Arial, sans-serif" font-size="10" fill="#b91c1c">Incomplete data</text>
  
  <!-- Footer -->
  <text x="20" y="480" font-family="Arial, sans-serif" font-size="10" fill="#94a3b8">TransTrack - Operational Risk Intelligence " Updated: Real-time</text>
</svg>
